<svg xmlns="http://www.w3.org/2000/svg" width="20" height="20" viewBox="0 0 20 20" fill="none"><mask id="mask0_129_4701" maskUnits="userSpaceOnUse" x="0" y="0" width="20" height="20" style="mask-type: alpha;"><rect width="20" height="20" fill="#D9D9D9"></rect></mask><g mask="url(#mask0_129_4701)"><path d="M8.39453 18L7.9362 15.625C7.61675 15.5 7.30773 15.3542 7.00911 15.1875C6.7105 15.0208 6.42925 14.8264 6.16536 14.6042L3.8737 15.375L2.26953 12.6042L4.08203 11.0208C4.05425 10.8542 4.03342 10.6875 4.01953 10.5208C4.00564 10.3542 3.9987 10.1806 3.9987 10C3.9987 9.81944 4.00564 9.64583 4.01953 9.47917C4.03342 9.3125 4.05425 9.14583 4.08203 8.97917L2.26953 7.39583L3.8737 4.625L6.16536 5.39583C6.42925 5.17361 6.7105 4.97917 7.00911 4.8125C7.30773 4.64583 7.61675 4.5 7.9362 4.375L8.39453 2H11.6029L12.0612 4.375C12.3806 4.5 12.6897 4.64583 12.9883 4.8125C13.2869 4.97917 13.5681 5.17361 13.832 5.39583L16.1237 4.625L17.7279 7.39583L15.9154 8.97917C15.9431 9.14583 15.964 9.3125 15.9779 9.47917C15.9918 9.64583 15.9987 9.81944 15.9987 10C15.9987 10.1806 15.9918 10.3542 15.9779 10.5208C15.964 10.6875 15.9431 10.8542 15.9154 11.0208L17.7279 12.6042L16.1237 15.375L13.832 14.6042C13.5681 14.8264 13.2869 15.0208 12.9883 15.1875C12.6897 15.3542 12.3806 15.5 12.0612 15.625L11.6029 18H8.39453ZM9.9987 13C10.832 13 11.5404 12.7083 12.1237 12.125C12.707 11.5417 12.9987 10.8333 12.9987 10C12.9987 9.16667 12.707 8.45833 12.1237 7.875C11.5404 7.29167 10.832 7 9.9987 7C9.16536 7 8.45703 7.29167 7.8737 7.875C7.29036 8.45833 6.9987 9.16667 6.9987 10C6.9987 10.8333 7.29036 11.5417 7.8737 12.125C8.45703 12.7083 9.16536 13 9.9987 13Z" fill="#AAB0B8"></path></g></svg>